REM MD5 385b234d79d24709a8946d3e3a1e437b
FILE "Addie no Okurimono - To Moze from Addie (Japan) (Demo).bin" BINARY
  TRACK 01 MODE2/2352
    INDEX 01 00:00:00
  TRACK 02 AUDIO
    INDEX 00 02:15:16
    INDEX 01 02:17:16
  TRACK 03 AUDIO
    INDEX 00 04:35:58
    INDEX 01 04:37:58
REM LEADOUT 07:14:39
